<?xml version="1.0" encoding="utf-8" ?>
<svg xmlns="http://www.w3.org/2000/svg" xmlns:xlink="http://www.w3.org/1999/xlink" width="13.55" height="16" viewBox="0 0 13.55 16">
	<defs>
		<clipPath id="clipPath5323924942">
			<path transform="matrix(1 0 0 1 0 0)" d="M0 0L13.55 0L13.55 16L0 16L0 0Z" fill-rule="nonzero"/>
		</clipPath>
	</defs>
	<g clip-path="url(#clipPath5323924942)">
		<path transform="matrix(1 0 0 1 0 0)" d="M13.3171 10.6979L12.2948 10.1081L13.0812 9.89639C13.3292 9.82985 13.4774 9.57277 13.4109 9.32475L13.2899 8.8741C13.2233 8.62608 12.9663 8.47788 12.7182 8.54442L10.5769 9.11908L8.64417 8L10.5738 6.88394L12.7152 7.4586C12.9632 7.52515 13.2203 7.37694 13.2869 7.12893L13.4078 6.67827C13.4744 6.43026 13.3262 6.17317 13.0782 6.10663L12.2918 5.89491L13.3141 5.30512C13.5379 5.17507 13.6135 4.89076 13.4865 4.66694L13.0177 3.85636C12.8876 3.63254 12.6033 3.55693 12.3795 3.68396L11.3572 4.27375L11.5689 3.48737C11.6355 3.23935 11.4873 2.98227 11.2392 2.91573L10.7886 2.79474C10.5406 2.7282 10.2835 2.87641 10.2169 3.12442L9.64228 5.2658L7.74286 6.36069L7.74286 4.01666L9.36704 2.39248C9.55456 2.20496 9.55456 1.89645 9.36704 1.70893L9.02527 1.36715C8.83775 1.17963 8.52924 1.17963 8.34172 1.36715L7.74286 1.96299L7.74286 0.741071C7.74286 0.474911 7.52509 0.257143 7.25893 0.257143L6.29107 0.257143C6.02491 0.257143 5.80714 0.474911 5.80714 0.741071L5.80714 1.96299L5.21131 1.36715C5.02378 1.17963 4.71528 1.17963 4.52776 1.36715L4.18296 1.70893C3.99241 1.89645 3.99241 2.20496 4.18296 2.39248L5.80714 4.01666L5.80714 6.36069L3.90772 5.2658L3.33306 3.12442C3.26652 2.87641 3.00943 2.7282 2.76142 2.79474L2.31076 2.91573C2.06275 2.98227 1.91454 3.23935 1.98108 3.48737L2.1928 4.27375L1.1705 3.68396C0.946685 3.55391 0.662377 3.63254 0.532321 3.85636L0.0635156 4.66392C-0.0665402 4.88773 0.0120982 5.17204 0.235915 5.3021L1.25821 5.89189L0.47183 6.1036C0.220792 6.17015 0.0725893 6.42723 0.139129 6.67827L0.260112 7.12893C0.326652 7.37694 0.583739 7.52515 0.831752 7.4586L2.97314 6.88394L4.9028 8L2.97314 9.11606L0.831752 8.5414C0.583739 8.47486 0.326652 8.62306 0.260112 8.87107L0.139129 9.32173C0.0725893 9.56974 0.220792 9.82683 0.468806 9.89337L1.25519 10.1051L0.232891 10.6979C0.00907366 10.828 -0.0665402 11.1123 0.0604911 11.3361L0.529297 12.1467C0.659353 12.3705 0.943661 12.4461 1.16748 12.3191L2.18978 11.7293L1.97806 12.5157C1.91152 12.7637 2.05972 13.0208 2.30773 13.0873L2.75839 13.2083C3.00641 13.2748 3.26349 13.1266 3.33003 12.8786L3.9047 10.7372L5.80412 9.64233L5.80412 11.9864L4.17993 13.6105C3.98939 13.7981 3.98939 14.1066 4.17993 14.2941L4.52171 14.6359C4.70923 14.8234 5.01773 14.8234 5.20526 14.6359L5.80109 14.04L5.80109 15.2589C5.80109 15.5251 6.01886 15.7429 6.28502 15.7429L7.25288 15.7429C7.51904 15.7429 7.73681 15.5251 7.73681 15.2589L7.73681 14.037L8.33265 14.6328C8.52017 14.8204 8.82867 14.8204 9.01619 14.6328L9.35797 14.2911C9.54549 14.1035 9.54549 13.795 9.35797 13.6075L7.74286 11.9833L7.74286 9.63931L9.64228 10.7342L10.2169 12.8756C10.2835 13.1236 10.5406 13.2718 10.7886 13.2053L11.2392 13.0843C11.4873 13.0177 11.6355 12.7606 11.5689 12.5126L11.3572 11.7262L12.3795 12.316C12.6033 12.4461 12.8876 12.3675 13.0177 12.1436L13.4865 11.3331C13.6165 11.1123 13.5409 10.8249 13.3171 10.6979" fill-rule="nonzero" fill="rgb(107, 114, 128)"/>
	</g>
</svg>
