<?xml version="1.0" encoding="utf-8" ?>
<svg xmlns="http://www.w3.org/2000/svg" xmlns:xlink="http://www.w3.org/1999/xlink" width="16.25" height="16.25" viewBox="0 0 16.25 16.25">
	<path transform="matrix(1 0 0 1 -1.875 -1.875)" d="M10 1.875C5.51992 1.875 1.875 5.51992 1.875 10C1.875 14.4801 5.51992 18.125 10 18.125C14.4801 18.125 18.125 14.4801 18.125 10C18.125 5.51992 14.4801 1.875 10 1.875M14.2285 7.27695L8.97852 13.527C8.86199 13.6657 8.69096 13.7471 8.50977 13.75L8.49922 13.75C8.32206 13.7499 8.15324 13.6747 8.03477 13.543L5.78477 11.043C5.62921 10.878 5.57522 10.6417 5.64368 10.4255C5.71214 10.2094 5.8923 10.0472 6.11447 10.0019C6.33663 9.95649 6.56594 10.035 6.71367 10.207L8.48281 12.1727L13.2715 6.47305C13.495 6.21464 13.8846 6.18359 14.1462 6.40335C14.4078 6.6231 14.4445 7.0122 14.2285 7.27695" fill-rule="nonzero" fill="rgb(255, 255, 255)"/>
</svg>
