<?xml version="1.0" encoding="utf-8" ?>
<svg xmlns="http://www.w3.org/2000/svg" xmlns:xlink="http://www.w3.org/1999/xlink" width="24" height="24" viewBox="0 0 24 24">
	<defs>
		<clipPath id="clipPath8598664801">
			<path transform="matrix(1 0 0 1 0 0)" d="M0 0L24 0L24 24L0 24L0 0Z" fill-rule="nonzero"/>
		</clipPath>
	</defs>
	<g clip-path="url(#clipPath8598664801)">
		<path transform="matrix(1 0 0 1 0 0)" d="M10.8787 15.743L10.8787 9C10.8787 8.58579 10.543 8.25 10.1287 8.25C9.71454 8.25 9.37875 8.58579 9.37875 9L9.37875 15.743Q9.38719 16.2833 9.59751 16.7649Q9.80054 17.2298 10.1632 17.5867Q10.5258 17.9437 10.9939 18.1394Q11.4787 18.342 12.0073 18.342Q12.5358 18.342 13.0206 18.1394Q13.4887 17.9437 13.8513 17.5867Q14.214 17.2298 14.417 16.7649Q14.6273 16.2833 14.6357 15.7548L14.6419 6.9052Q14.6547 5.85104 14.1308 4.92633Q13.6068 4.00163 12.6885 3.4665Q11.7703 2.93136 10.7074 2.93136Q9.64459 2.93136 8.72631 3.4665Q7.80803 4.00163 7.28408 4.92633Q6.76013 5.85104 6.77303 6.91379L6.77297 15.8025Q6.75258 17.2056 7.44779 18.437Q8.14299 19.6684 9.36421 20.3814Q10.5854 21.0943 11.9995 21.0943Q13.4136 21.0943 14.6349 20.3814Q15.8561 19.6684 16.5513 18.437Q17.2465 17.2056 17.226 15.7916L17.2261 7.48781C17.2261 7.0736 16.8903 6.73781 16.4761 6.73781C16.0619 6.73781 15.7261 7.0736 15.7261 7.48781L15.7262 15.8134Q15.7408 16.8215 15.2451 17.6996Q14.7494 18.5776 13.8786 19.086Q13.0078 19.5943 11.9995 19.5943Q10.9912 19.5943 10.1205 19.086Q9.2497 18.5776 8.754 17.6996Q8.2583 16.8215 8.27297 15.8025L8.27291 6.89559Q8.26494 6.23799 8.58914 5.6658Q8.91335 5.09362 9.48156 4.76249Q10.0498 4.43136 10.7074 4.43136Q11.3651 4.43136 11.9333 4.76249Q12.5015 5.09362 12.8257 5.6658Q13.1499 6.23798 13.1419 6.90417L13.1359 15.7311Q13.1286 16.1934 12.7991 16.5177Q12.4696 16.842 12.0073 16.842Q11.5449 16.842 11.2154 16.5177Q10.886 16.1934 10.8787 15.743Z" fill-rule="evenodd" fill="rgb(75, 85, 99)"/>
	</g>
</svg>
