<?xml version="1.0" encoding="utf-8" ?>
<svg xmlns="http://www.w3.org/2000/svg" xmlns:xlink="http://www.w3.org/1999/xlink" width="14.2" height="20" viewBox="0 0 14.2 20">
	<defs>
		<clipPath id="clipPath5849541759">
			<path transform="matrix(1 0 0 1 0 0)" d="M0 0L14.2 0L14.2 20L0 20L0 0Z" fill-rule="nonzero"/>
		</clipPath>
	</defs>
	<g clip-path="url(#clipPath5849541759)">
		<path transform="matrix(1 0 0 1 0 0)" d="M3.10696 10Q2.55606 10.0018 2.16645 10.3914Q1.77663 10.7813 1.775 11.3313L1.775 14.4375C1.775 14.6826 1.57632 14.8813 1.33125 14.8813C1.08618 14.8813 0.8875 14.6826 0.8875 14.4375L0.8875 11.3313Q0.888833 10.8796 1.06367 10.4678Q1.23245 10.0703 1.53889 9.76389Q1.83603 9.46676 2.21875 9.29906L2.21875 6.67188Q2.22067 6.02857 2.67462 5.57462Q3.12857 5.12067 3.77055 5.11875L10.4281 5.11875Q11.0714 5.12067 11.5254 5.57462Q11.9793 6.02857 11.9812 6.67055L11.9813 9.29906Q12.364 9.46676 12.6611 9.76389Q12.9676 10.0703 13.1363 10.4678Q13.3112 10.8796 13.3125 11.3299L13.3125 14.4375C13.3125 14.6826 13.1138 14.8813 12.8687 14.8813C12.6237 14.8813 12.425 14.6826 12.425 14.4375L12.425 11.3326Q12.4234 10.7813 12.0336 10.3914Q11.6437 10.0016 11.0938 10L3.10696 10ZM11.0938 9.1125L11.0938 6.6732Q11.0929 6.39728 10.8978 6.20218Q10.7027 6.00707 10.4281 6.00625L3.7732 6.00625Q3.49728 6.00707 3.30218 6.20218Q3.10707 6.39728 3.10625 6.67188L3.10625 9.1125L11.0938 9.1125Z" fill-rule="evenodd" fill="rgb(107, 114, 128)"/>
		<path transform="matrix(1 0 0 1 0 0)" d="M2.6625 9.55625L2.6625 9.1125Q2.66404 8.56099 3.05314 8.17189Q3.44224 7.78279 3.99251 7.78125L6.2125 7.78125Q6.72689 7.78269 7.1 8.12127Q7.47303 7.78269 7.98626 7.78125L10.2063 7.78125Q10.7578 7.78279 11.1469 8.17189Q11.536 8.56099 11.5375 9.11126L11.5375 9.55625C11.5375 9.80132 11.3388 10 11.0938 10C10.8487 10 10.65 9.80132 10.65 9.55625L10.65 9.11374Q10.6495 8.92963 10.5193 8.79945Q10.3891 8.66926 10.2063 8.66875L7.98874 8.66875Q7.80463 8.66926 7.67445 8.79945Q7.54426 8.92963 7.54375 9.1125L7.54375 9.55625C7.54375 9.80132 7.34507 10 7.1 10C6.85493 10 6.65625 9.80132 6.65625 9.55625L6.65625 9.1125Q6.6553 8.92919 6.52555 8.79945Q6.39537 8.66926 6.2125 8.66875L3.99499 8.66875Q3.81088 8.66926 3.6807 8.79945Q3.55051 8.92963 3.55 9.1125L3.55 9.55625C3.55 9.80132 3.35132 10 3.10625 10C2.86118 10 2.6625 9.80132 2.6625 9.55625ZM0.8875 14.4375L0.8875 14.2156Q0.888833 13.7559 1.21299 13.4317Q1.53716 13.1076 1.99559 13.1063L12.2031 13.1062Q12.6628 13.1076 12.987 13.4317Q13.3112 13.7559 13.3125 14.2143L13.3125 14.4375C13.3125 14.6826 13.1138 14.8813 12.8687 14.8813C12.6237 14.8813 12.425 14.6826 12.425 14.4375L12.425 14.2169Q12.4247 14.1246 12.3594 14.0593Q12.2942 13.994 12.2031 13.9938L1.99816 13.9937Q1.90584 13.994 1.84055 14.0593Q1.77527 14.1246 1.775 14.2156L1.775 14.4375C1.775 14.6826 1.57632 14.8813 1.33125 14.8813C1.08618 14.8813 0.8875 14.6826 0.8875 14.4375Z" fill-rule="evenodd" fill="rgb(107, 114, 128)"/>
	</g>
</svg>
