<?xml version="1.0" encoding="utf-8" ?>
<svg xmlns="http://www.w3.org/2000/svg" xmlns:xlink="http://www.w3.org/1999/xlink" width="32" height="32" viewBox="0 0 32 32">
	<defs>
		<clipPath id="clipPath4649174719">
			<path transform="matrix(1 0 0 1 0 0)" d="M0 0L32 0L32 32L0 32L0 0Z" fill-rule="nonzero"/>
		</clipPath>
	</defs>
	<g clip-path="url(#clipPath4649174719)">
		<defs>
			<clipPath id="clipPath7104717787">
				<path transform="matrix(1 0 0 1 0 0)" d="M0 0L32 0L32 32L0 32L0 0Z" fill-rule="nonzero"/>
			</clipPath>
		</defs>
		<g clip-path="url(#clipPath7104717787)">
			<path transform="matrix(1 0 0 1 0 0)" d="M16 13C13.7923 13 12 14.7923 12 17C12 19.2077 13.7923 21 16 21C18.2077 21 20 19.2077 20 17C20 14.7923 18.2077 13 16 13" fill-rule="nonzero" fill="rgb(156, 163, 175)"/>
			<path transform="matrix(1 0 0 1 0 0)" d="M27 9L23.3125 9C23.125 9 22.8925 8.87875 22.7113 8.6875L21.09 6.12875C21.0644 6.08814 21.0357 6.04949 21.0044 6.01312C20.4444 5.36 19.6875 5 18.875 5L13.125 5C12.3125 5 11.5556 5.36 10.9956 6.01312C10.9643 6.04949 10.9356 6.08814 10.91 6.12875L9.28875 8.69125C9.15 8.8425 8.955 9.00375 8.75 9.00375L8.75 8.50375C8.75 7.95183 8.30192 7.50375 7.75 7.50375L6.25 7.50375C5.69808 7.50375 5.25 7.95183 5.25 8.50375L5.25 9.00375L5 9.00375C3.34386 9.00547 2.00172 10.3476 2 12.0037L2 24C2.00172 25.6561 3.34386 26.9983 5 27L27 27C28.6561 26.9983 29.9983 25.6561 30 24L30 12C29.9983 10.3439 28.6561 9.00172 27 9M16 23C12.6885 23 10 20.3115 10 17C10 13.6885 12.6885 11 16 11C19.3115 11 22 13.6885 22 17C21.9962 20.3121 19.3121 22.9962 16 23" fill-rule="nonzero" fill="rgb(156, 163, 175)"/>
		</g>
	</g>
</svg>
