<?xml version="1.0" encoding="utf-8" ?>
<svg xmlns="http://www.w3.org/2000/svg" xmlns:xlink="http://www.w3.org/1999/xlink" width="18.7472" height="12.5" viewBox="0 0 18.7472 12.5">
	<path transform="matrix(1 0 0 1 -0.627686 -3.75)" d="M19.307 10.7898C19.1664 9.21133 18.9348 8.90391 18.8473 8.78828C18.6461 8.52109 18.3242 8.34648 17.9836 8.16328C17.9445 8.14263 17.9175 8.10483 17.9105 8.06121C17.9035 8.01759 17.9174 7.97322 17.948 7.94141C18.0757 7.81194 18.1404 7.63312 18.125 7.45195C18.0945 7.12281 17.8169 6.87197 17.4863 6.875L16.877 6.875C16.8508 6.87515 16.8247 6.87685 16.7988 6.88008C16.781 6.87236 16.7626 6.86622 16.7437 6.86172C16.3828 6.09883 15.8887 5.0543 14.8645 4.54453C13.3453 3.78906 10.5469 3.75 10 3.75C9.45312 3.75 6.65469 3.78906 5.1375 4.54336C4.11328 5.05312 3.61914 6.09766 3.2582 6.86055L3.25508 6.8668C3.23708 6.86933 3.2194 6.87378 3.20234 6.88008C3.17642 6.87685 3.15034 6.87515 3.12422 6.875L2.51367 6.875C2.18314 6.87197 1.90546 7.12281 1.875 7.45195C1.86096 7.63269 1.92643 7.81056 2.0543 7.93906C2.08494 7.97088 2.09886 8.01525 2.09187 8.05887C2.08488 8.10249 2.0578 8.14029 2.01875 8.16094C1.67812 8.34531 1.35469 8.51992 1.15508 8.78594C1.06758 8.90312 0.836328 9.20898 0.695312 10.7875C0.617188 11.6758 0.605469 12.5953 0.666797 13.1875C0.795313 14.418 1.03633 15.1617 1.04648 15.1926C1.12197 15.4218 1.32267 15.5871 1.56211 15.6172L1.56211 15.625C1.56211 15.9699 1.84216 16.25 2.18711 16.25L4.37461 16.25C4.71956 16.25 4.99961 15.9699 4.99961 15.625C5.33594 15.625 5.56992 15.5648 5.81797 15.5008C6.17609 15.4043 6.54214 15.3401 6.91172 15.309C8.10352 15.1953 9.28867 15.1562 10 15.1562C10.6969 15.1562 11.9344 15.1953 13.1281 15.309C13.4992 15.3402 13.8667 15.4046 14.2262 15.5016C14.4637 15.5625 14.6891 15.6187 15.0012 15.6246C15.0012 15.9696 15.2812 16.2496 15.6262 16.2496L17.8137 16.2496C18.1586 16.2496 18.4387 15.9696 18.4387 15.6246L18.4387 15.6199C18.6787 15.5904 18.8801 15.425 18.9559 15.1953C18.966 15.1645 19.207 14.4207 19.3355 13.1902C19.3969 12.5977 19.3859 11.6797 19.307 10.7898M4.38789 7.39492C4.70039 6.73086 5.05781 5.9793 5.69414 5.6625C6.61367 5.20469 8.51953 4.99844 10 4.99844C11.4805 4.99844 13.3863 5.20312 14.3059 5.6625C14.9422 5.9793 15.298 6.73125 15.6121 7.39492L15.6512 7.47969C15.6976 7.57781 15.6898 7.69301 15.6306 7.78397C15.5713 7.87493 15.4691 7.92862 15.3605 7.92578C14.0625 7.89062 11.3281 7.77812 10 7.77812C8.67188 7.77812 5.9375 7.89336 4.6375 7.92852C4.52898 7.93135 4.42675 7.87767 4.36749 7.78671C4.30823 7.69574 4.30043 7.58055 4.34688 7.48242C4.36055 7.45352 4.375 7.42422 4.38789 7.39492M4.85391 10.5055C4.18195 10.5863 3.50571 10.6263 2.82891 10.625C2.41484 10.625 1.98789 10.5078 1.90859 10.1391C1.8543 9.89102 1.86016 9.75156 1.88945 9.61133C1.91406 9.49219 1.95312 9.40547 2.14844 9.375C2.65625 9.29688 2.94023 9.39492 3.77148 9.63984C4.32266 9.80195 4.72031 10.018 4.94688 10.1891C5.06055 10.2734 5 10.4937 4.85391 10.5055M13.5016 13.7086C12.9875 13.7672 11.9594 13.7457 10.0117 13.7457C8.06406 13.7457 7.03633 13.7672 6.52227 13.7086C5.9918 13.6496 5.31563 13.148 5.77734 12.7012C6.08477 12.4066 6.80195 12.1863 7.75703 12.0625C8.71211 11.9387 9.11641 11.875 10.0078 11.875C10.8992 11.875 11.2625 11.9141 12.2586 12.0629C13.2547 12.2117 14.0074 12.4348 14.2383 12.7016C14.6594 13.1797 14.0316 13.6465 13.5016 13.7109M18.0914 10.1387C18.0133 10.509 17.5836 10.6246 17.1711 10.6246C16.4813 10.6248 15.7922 10.5849 15.107 10.5051C14.9875 10.4938 14.932 10.284 15.0531 10.1887C15.2762 10.0133 15.6781 9.80156 16.2285 9.63945C17.0598 9.39453 17.5391 9.29648 17.9508 9.37813C18.0512 9.39805 18.1043 9.50586 18.1105 9.57344C18.1381 9.7616 18.1316 9.95319 18.0914 10.1391" fill-rule="nonzero" fill="rgb(75, 85, 99)"/>
</svg>
