<?xml version="1.0" encoding="utf-8" ?>
<svg xmlns="http://www.w3.org/2000/svg" xmlns:xlink="http://www.w3.org/1999/xlink" width="20" height="20" viewBox="0 0 20 20">
	<path transform="matrix(1 0 0 1 0 0)" d="M10 0C4.47715 0 0 4.47715 0 10L0 10.015C0 15.5378 4.46215 20 9.985 20L10 20C15.5228 20 20 15.5378 20 10.015L20 10C20 4.47715 15.5378 0 10.015 0L10 0Z" fill-rule="nonzero" fill="rgb(239, 68, 68)"/>
	<defs>
		<clipPath id="clipPath8320317592">
			<path transform="matrix(1 0 0 1 4 4)" d="M0 0L12 0L12 12L0 12L0 0Z" fill-rule="nonzero"/>
		</clipPath>
	</defs>
	<g clip-path="url(#clipPath8320317592)">
		<path transform="matrix(1 0 0 1 4 4)" d="M10.125 2.25L7.875 2.25L7.875 1.6875C7.875 1.17008 7.45492 0.75 6.9375 0.75L5.0625 0.75C4.54508 0.75 4.125 1.17008 4.125 1.6875L4.125 2.25L1.875 2.25C1.66803 2.25 1.5 2.41803 1.5 2.625C1.5 2.83197 1.66803 3 1.875 3L2.27344 3L2.71875 10.1466C2.75203 10.7759 3.23438 11.25 3.84375 11.25L8.15625 11.25C8.76867 11.25 9.24141 10.7864 9.28125 10.1484L9.72656 3L10.125 3C10.332 3 10.5 2.83197 10.5 2.625C10.5 2.41803 10.332 2.25 10.125 2.25M4.51336 9.75L4.5 9.75C4.298 9.75013 4.1322 9.59023 4.125 9.38836L3.9375 4.13836C3.93012 3.93125 4.09203 3.75738 4.29914 3.75C4.50625 3.74262 4.68012 3.90453 4.6875 4.11164L4.875 9.36164C4.87861 9.46111 4.84252 9.55794 4.77468 9.63079C4.70685 9.70363 4.61284 9.74652 4.51336 9.75M6.375 9.375C6.375 9.58197 6.20697 9.75 6 9.75C5.79303 9.75 5.625 9.58197 5.625 9.375L5.625 4.125C5.625 3.91803 5.79303 3.75 6 3.75C6.20697 3.75 6.375 3.91803 6.375 4.125M7.125 2.25L4.875 2.25L4.875 1.6875C4.87443 1.6376 4.894 1.58958 4.92929 1.55429C4.96458 1.519 5.0126 1.49943 5.0625 1.5L6.9375 1.5C6.9874 1.49943 7.03542 1.519 7.07071 1.55429C7.106 1.58958 7.12557 1.6376 7.125 1.6875M7.875 9.38836C7.8678 9.59023 7.702 9.75013 7.5 9.75L7.48641 9.75C7.38697 9.74646 7.29302 9.70354 7.22523 9.6307C7.15745 9.55787 7.12139 9.46107 7.125 9.36164L7.3125 4.11164C7.31988 3.90453 7.49375 3.74262 7.70086 3.75C7.90797 3.75738 8.06988 3.93125 8.0625 4.13836" fill-rule="nonzero" fill="rgb(255, 255, 255)"/>
	</g>
</svg>
