<?xml version="1.0" encoding="utf-8" ?>
<svg xmlns="http://www.w3.org/2000/svg" xmlns:xlink="http://www.w3.org/1999/xlink" width="20" height="20" viewBox="0 0 20 20">
	<defs>
		<clipPath id="clipPath7893413005">
			<path transform="matrix(1 0 0 1 0 0)" d="M0 0L20 0L20 20L0 20L0 0Z" fill-rule="nonzero"/>
		</clipPath>
	</defs>
	<g clip-path="url(#clipPath7893413005)">
		<path transform="matrix(1 0 0 1 0 0)" d="M9.98672 3.75Q12.7505 3.75 15.296 5.39349Q17.5934 6.87686 19.1759 9.32113Q19.3757 9.63149 19.3757 10.0006Q19.3757 10.3697 19.1771 10.6782Q17.6042 13.1413 15.3071 14.6203Q12.7759 16.25 9.98672 16.25Q7.17552 16.25 4.66233 14.6239Q2.40002 13.16 0.825037 10.6946Q0.619349 10.3763 0.625107 9.9973Q0.630865 9.61832 0.847956 9.30373Q2.73494 6.59887 5.13238 5.16063Q7.48379 3.75 9.98672 3.75ZM9.98672 5Q7.82998 5 5.77543 6.23254Q3.60835 7.53259 1.87496 10.0163Q3.30716 12.2582 5.34138 13.5744Q7.54466 15 9.98672 15Q12.4083 15 14.6305 13.5693Q16.6978 12.2382 18.1236 10.0054Q18.1267 10.0006 18.1248 9.99763Q16.6899 7.78145 14.6179 6.44362Q12.3821 5 9.98672 5Z" fill-rule="evenodd" fill="rgb(156, 163, 175)"/>
		<path transform="matrix(1 0 0 1 0 0)" d="M10 7.5Q9.4915 7.5 9.02771 7.69631Q8.57917 7.88616 8.23267 8.23267Q7.88616 8.57917 7.69631 9.02771Q7.5 9.4915 7.5 10Q7.5 10.5085 7.69631 10.9723Q7.88616 11.4208 8.23267 11.7673Q8.57917 12.1138 9.02771 12.3037Q9.4915 12.5 10 12.5Q10.5085 12.5 10.9723 12.3037Q11.4208 12.1138 11.7673 11.7673Q12.1138 11.4208 12.3037 10.9723Q12.5 10.5085 12.5 10Q12.5 9.4915 12.3037 9.02771Q12.1138 8.57917 11.7673 8.23267Q11.4208 7.88616 10.9723 7.69631Q10.5085 7.5 10 7.5L10 6.25Q10.7621 6.25 11.4595 6.54518Q12.1324 6.82999 12.6512 7.34878Q13.17 7.86757 13.4548 8.54048Q13.75 9.23785 13.75 10Q13.75 10.7621 13.4548 11.4595Q13.17 12.1324 12.6512 12.6512Q12.1324 13.17 11.4595 13.4548Q10.7621 13.75 10 13.75Q9.23785 13.75 8.54048 13.4548Q7.86757 13.17 7.34878 12.6512Q6.82999 12.1324 6.54518 11.4595Q6.25 10.7621 6.25 10Q6.25 9.23785 6.54518 8.54048Q6.82999 7.86757 7.34878 7.34878Q7.86757 6.83 8.54048 6.54518Q9.23785 6.25 10 6.25L10 7.5Z" fill-rule="nonzero" fill="rgb(156, 163, 175)"/>
	</g>
</svg>
