<?xml version="1.0" encoding="utf-8" ?>
<svg xmlns="http://www.w3.org/2000/svg" xmlns:xlink="http://www.w3.org/1999/xlink" width="16" height="9.6001" viewBox="0 0 16 9.6001">
	<path transform="matrix(1 0 0 1 0 -3.19995)" d="M4 7.2L4 8.8L12 8.8L12 7.2C12 6.3175 12.7175 5.6 13.6 5.6L14.4 5.6C14.4 4.275 13.325 3.2 12 3.2L4 3.2C2.675 3.2 1.6 4.275 1.6 5.6L2.4 5.6C3.2825 5.6 4 6.3175 4 7.2M14.4 6.4L13.6 6.4C13.1575 6.4 12.8 6.7575 12.8 7.2L12.8 9.6L3.2 9.6L3.2 7.2C3.2 6.7575 2.8425 6.4 2.4 6.4L1.6 6.4C0.7175 6.4 0 7.1175 0 8C0 8.59 0.325 9.1 0.8 9.3775L0.8 12.4C0.8 12.62 0.98 12.8 1.2 12.8L2.8 12.8C3.02 12.8 3.2 12.62 3.2 12.4L3.2 12L12.8 12L12.8 12.4C12.8 12.62 12.98 12.8 13.2 12.8L14.8 12.8C15.02 12.8 15.2 12.62 15.2 12.4L15.2 9.3775C15.675 9.1 16 8.59 16 8C16 7.1175 15.2825 6.4 14.4 6.4" fill-rule="nonzero" fill="rgb(107, 114, 128)"/>
</svg>
