<?xml version="1.0" encoding="utf-8" ?>
<svg xmlns="http://www.w3.org/2000/svg" xmlns:xlink="http://www.w3.org/1999/xlink" width="40" height="40" viewBox="0 0 40 40">
	<defs>
		<clipPath id="clipPath8751387536">
			<path transform="matrix(1 0 0 1 8 8)" d="M0 0L24 0L24 24L0 24L0 0Z" fill-rule="nonzero"/>
		</clipPath>
	</defs>
	<g clip-path="url(#clipPath8751387536)">
		<path transform="matrix(1 0 0 1 8 8)" d="M4.5 3L19.5 3Q20.1096 3 20.6678 3.23625Q21.2061 3.46412 21.621 3.87899Q22.0359 4.29387 22.2637 4.83221Q22.5 5.39038 22.5 6L22.5 18Q22.5 18.6096 22.2637 19.1678Q22.0359 19.7061 21.621 20.121Q21.2061 20.5359 20.6678 20.7637Q20.1096 21 19.5 21L4.5 21Q3.89038 21 3.33221 20.7637Q2.79386 20.5359 2.37899 20.121Q1.96412 19.7061 1.73625 19.1678Q1.5 18.6096 1.5 18L1.5 6Q1.5 5.39038 1.73625 4.83221Q1.96412 4.29387 2.37899 3.87899Q2.79387 3.46412 3.33221 3.23625Q3.89038 3 4.5 3L4.5 4.5Q3.8793 4.5 3.43965 4.93965Q3 5.3793 3 6L3 18Q3 18.6207 3.43965 19.0603Q3.8793 19.5 4.5 19.5L19.5 19.5Q20.1207 19.5 20.5603 19.0603Q21 18.6207 21 18L21 6Q21 5.3793 20.5603 4.93965Q20.1207 4.5 19.5 4.5L4.5 4.5L4.5 3Z" fill-rule="nonzero" fill="rgb(75, 85, 99)"/>
		<path transform="matrix(1 0 0 1 8 8)" d="M15.75 7.5Q15.4398 7.5 15.2199 7.71988Q15 7.93976 15 8.25Q15 8.56025 15.2199 8.78012Q15.4398 9 15.75 9Q16.0602 9 16.2801 8.78012Q16.5 8.56024 16.5 8.25Q16.5 7.93976 16.2801 7.71988Q16.0602 7.5 15.75 7.5L15.75 6Q16.2071 6 16.626 6.17728Q17.0297 6.34818 17.3408 6.65922Q17.6518 6.97025 17.8227 7.37403Q18 7.79286 18 8.25Q18 8.70714 17.8227 9.12597Q17.6518 9.52975 17.3408 9.84078Q17.0297 10.1518 16.626 10.3227Q16.2071 10.5 15.75 10.5Q15.2929 10.5 14.874 10.3227Q14.4703 10.1518 14.1592 9.84078Q13.8482 9.52974 13.6773 9.12597Q13.5 8.70714 13.5 8.25Q13.5 7.79286 13.6773 7.37403Q13.8482 6.97026 14.1592 6.65922Q14.4703 6.34818 14.874 6.17728Q15.2929 6 15.75 6L15.75 7.5Z" fill-rule="nonzero" fill="rgb(75, 85, 99)"/>
		<path transform="matrix(1 0 0 1 8 8)" d="M13.5691 16.1202L9.47048 12.0293Q9.25953 11.8184 8.96199 11.8095Q8.66444 11.8007 8.44184 11.9984L2.74834 17.0605C2.43879 17.3357 1.96473 17.3079 1.6895 16.9983C1.41428 16.6888 1.44211 16.2147 1.75166 15.9395L7.44597 10.8766Q8.11378 10.2838 9.00642 10.3102Q9.89905 10.3367 10.5301 10.9676L14.6298 15.0596L15.7512 13.9381Q16.3672 13.3209 17.239 13.2805Q18.1108 13.24 18.7819 13.798L22.2304 16.674C22.5485 16.9393 22.5913 17.4123 22.326 17.7304C22.0607 18.0485 21.5877 18.0913 21.2696 17.826L17.8228 14.9514Q17.5991 14.7654 17.3085 14.7788Q17.0179 14.7923 16.8119 14.9988L11.0303 20.7803C10.7374 21.0732 10.2626 21.0732 9.96967 20.7803C9.67678 20.4874 9.67678 20.0126 9.96967 19.7197L13.5691 16.1202Z" fill-rule="evenodd" fill="rgb(75, 85, 99)"/>
	</g>
</svg>
