<?xml version="1.0" encoding="utf-8" ?>
<svg xmlns="http://www.w3.org/2000/svg" xmlns:xlink="http://www.w3.org/1999/xlink" width="20" height="20" viewBox="0 0 20 20">
	<defs>
		<clipPath id="clipPath5852318521">
			<path transform="matrix(1 0 0 1 0 0)" d="M0 0L20 0L20 20L0 20L0 0Z" fill-rule="nonzero"/>
		</clipPath>
	</defs>
	<g clip-path="url(#clipPath5852318521)">
		<path transform="matrix(1 0 0 1 0 0)" d="M18.1712 8.36792L17.5 8.36792L17.5 8.33333L10 8.33333L10 11.6667L14.7096 11.6667C14.0225 13.6071 12.1763 15 10 15C7.23875 15 5 12.7612 5 10C5 7.23875 7.23875 5 10 5C11.2746 5 12.4342 5.48083 13.3171 6.26625L15.6742 3.90917C14.1858 2.52208 12.195 1.66667 10 1.66667C5.39792 1.66667 1.66667 5.39792 1.66667 10C1.66667 14.6021 5.39792 18.3333 10 18.3333C14.6021 18.3333 18.3333 14.6021 18.3333 10C18.3333 9.44125 18.2758 8.89583 18.1712 8.36792" fill-rule="nonzero" fill="rgb(255, 193, 7)"/>
		<path transform="matrix(1 0 0 1 0 0)" d="M2.6275 6.12125L5.36542 8.12917C6.10625 6.295 7.90042 5 10 5C11.2746 5 12.4342 5.48083 13.3171 6.26625L15.6742 3.90917C14.1858 2.52208 12.195 1.66667 10 1.66667C6.79917 1.66667 4.02333 3.47375 2.6275 6.12125" fill-rule="nonzero" fill="rgb(255, 61, 0)"/>
		<path transform="matrix(1 0 0 1 0 0)" d="M10 18.3333C12.1525 18.3333 14.1083 17.5096 15.5871 16.17L13.0079 13.9875C12.1431 14.6452 11.0864 15.0009 10 15C7.8325 15 5.99208 13.6179 5.29875 11.6892L2.58125 13.7829C3.96042 16.4817 6.76125 18.3333 10 18.3333" fill-rule="nonzero" fill="rgb(76, 175, 80)"/>
		<path transform="matrix(1 0 0 1 0 0)" d="M18.1712 8.36792L17.5 8.36792L17.5 8.33333L10 8.33333L10 11.6667L14.7096 11.6667C14.3809 12.5902 13.7889 13.3972 13.0067 13.9879L13.0079 13.9871L15.5871 16.1696C15.4046 16.3354 18.3333 14.1667 18.3333 10C18.3333 9.44125 18.2758 8.89583 18.1712 8.36792" fill-rule="nonzero" fill="rgb(25, 118, 210)"/>
	</g>
</svg>
