<?xml version="1.0" encoding="utf-8" ?>
<svg xmlns="http://www.w3.org/2000/svg" xmlns:xlink="http://www.w3.org/1999/xlink" width="14" height="14" viewBox="0 0 14 14">
	<path transform="matrix(1 0 0 1 -1 -1)" d="M13.5 1L2.5 1C1.67188 1 1 1.67188 1 2.5L1 13.5C1 14.3281 1.67188 15 2.5 15L13.5 15C14.3281 15 15 14.3281 15 13.5L15 2.5C15 1.67188 14.3281 1 13.5 1M8.5 10L7 10L7 11.5C7 11.775 6.775 12 6.5 12L5.5 12C5.225 12 5 11.775 5 11.5L5 4.5C5 4.225 5.225 4 5.5 4L8.5 4C10.1531 4 11.5 5.34688 11.5 7C11.5 8.65312 10.1531 10 8.5 10M8.5 6L7 6L7 8L8.5 8C9.05 8 9.5 7.55 9.5 7C9.5 6.45 9.05 6 8.5 6" fill-rule="nonzero" fill="rgb(107, 114, 128)"/>
</svg>
