<?xml version="1.0" encoding="utf-8" ?>
<svg xmlns="http://www.w3.org/2000/svg" xmlns:xlink="http://www.w3.org/1999/xlink" width="16" height="11.2" viewBox="0 0 16 11.2">
	<path transform="matrix(1 0 0 1 0 -2.40002)" d="M15.6 12L15.2 12C14.549 12 14.055 11.7895 13.7978 11.5525C13.5753 11.3472 13.3062 11.2 13.0035 11.2L12.596 11.2C12.2933 11.2 12.0243 11.3472 11.8018 11.5525C11.545 11.7895 11.051 12 10.4 12C9.749 12 9.255 11.7895 8.99775 11.5525C8.77525 11.3472 8.50625 11.2 8.2035 11.2L7.796 11.2C7.49325 11.2 7.22425 11.3472 7.00175 11.5525C6.745 11.7895 6.251 12 5.6 12C4.949 12 4.455 11.7895 4.19775 11.5525C3.97525 11.3472 3.70625 11.2 3.4035 11.2L2.996 11.2C2.69325 11.2 2.42425 11.3472 2.20175 11.5525C1.945 11.7895 1.451 12 0.8 12L0.4 12C0.179 12 0 12.179 0 12.4L0 13.2C0 13.421 0.179 13.6 0.4 13.6L0.8 13.6C1.7655 13.6 2.618 13.2952 3.2 12.804C3.782 13.2955 4.6345 13.6 5.6 13.6C6.5655 13.6 7.418 13.2952 8 12.804C8.582 13.2955 9.4345 13.6 10.4 13.6C11.3655 13.6 12.218 13.2952 12.8 12.804C13.382 13.2955 14.2345 13.6 15.2 13.6L15.6 13.6C15.821 13.6 16 13.421 16 13.2L16 12.4C16 12.179 15.821 12 15.6 12M5.6 11.2L5.6 8.8L10.4 8.8L10.4 11.2C10.878 11.2 11.1715 11.046 11.2598 10.9645C11.489 10.753 11.7397 10.606 12 10.5127L12 4.8C12 4.359 12.359 4 12.8 4C13.241 4 13.6 4.359 13.6 4.8L13.6 5.2C13.6 5.421 13.779 5.6 14 5.6L14.8 5.6C15.021 5.6 15.2 5.421 15.2 5.2L15.2 4.8C15.2 3.4765 14.1235 2.4 12.8 2.4C11.4765 2.4 10.4 3.4765 10.4 4.8L10.4 7.2L5.6 7.2L5.6 4.8C5.6 4.359 5.959 4 6.4 4C6.841 4 7.2 4.359 7.2 4.8L7.2 5.2C7.2 5.421 7.379 5.6 7.6 5.6L8.4 5.6C8.621 5.6 8.8 5.421 8.8 5.2L8.8 4.8C8.8 3.4765 7.7235 2.4 6.4 2.4C5.0765 2.4 4 3.4765 4 4.8L4 10.5125C4.26025 10.6058 4.511 10.753 4.74025 10.9642C4.8285 11.046 5.122 11.2 5.6 11.2" fill-rule="nonzero" fill="rgb(107, 114, 128)"/>
</svg>
