<?xml version="1.0" encoding="utf-8" ?>
<svg xmlns="http://www.w3.org/2000/svg" xmlns:xlink="http://www.w3.org/1999/xlink" width="16.25" height="16.25" viewBox="0 0 16.25 16.25">
	<path transform="matrix(1 0 0 1 -1.875 -1.875)" d="M10 1.875C5.51992 1.875 1.875 5.51992 1.875 10C1.875 14.4801 5.51992 18.125 10 18.125C14.4801 18.125 18.125 14.4801 18.125 10C18.125 5.51992 14.4801 1.875 10 1.875M12.9418 12.0582C13.1064 12.2146 13.1733 12.4481 13.1164 12.6679C13.0595 12.8878 12.8878 13.0595 12.6679 13.1164C12.4481 13.1733 12.2146 13.1064 12.0582 12.9418L10 10.884L7.9418 12.9418C7.69607 13.1753 7.30904 13.1703 7.06937 12.9306C6.8297 12.691 6.82475 12.3039 7.0582 12.0582L9.11602 10L7.0582 7.9418C6.82475 7.69607 6.8297 7.30904 7.06937 7.06937C7.30904 6.8297 7.69607 6.82475 7.9418 7.0582L10 9.11602L12.0582 7.0582C12.3039 6.82475 12.691 6.8297 12.9306 7.06937C13.1703 7.30904 13.1753 7.69607 12.9418 7.9418L10.884 10" fill-rule="nonzero" fill="rgb(255, 255, 255)"/>
</svg>
