<?xml version="1.0" encoding="utf-8" ?>
<svg xmlns="http://www.w3.org/2000/svg" xmlns:xlink="http://www.w3.org/1999/xlink" width="20" height="20" viewBox="0 0 20 20">
	<defs>
		<clipPath id="clipPath7796190723">
			<path transform="matrix(1 0 0 1 0 0)" d="M0 0L20 0L20 20L0 20L0 0Z" fill-rule="nonzero"/>
		</clipPath>
	</defs>
	<g clip-path="url(#clipPath7796190723)">
		<path transform="matrix(1 0 0 1 0 0)" d="M13.8906 12.1266Q14.0311 12.3972 14.2805 12.5728L17.5113 14.847Q17.5613 14.8822 17.6172 14.907Q17.9072 15.036 18.2236 15.0109Q18.5399 14.9859 18.8061 14.813Q19.0722 14.6401 19.2236 14.3611Q19.375 14.0822 19.375 13.7648L19.375 6.23516Q19.375 5.91778 19.2236 5.63885Q19.0722 5.35992 18.8061 5.187Q18.5399 5.01408 18.2236 4.98906Q17.9072 4.96403 17.6172 5.09296Q17.5613 5.1178 17.5113 5.15298L14.2805 7.4272Q14.0311 7.60276 13.8906 7.87344Q13.7501 8.14411 13.75 8.44908L13.75 11.5508Q13.7501 11.8559 13.8906 12.1266ZM15 11.5506L18.125 13.7504L18.125 6.24965L15 8.44935L15 11.5506Z" fill-rule="evenodd" fill="rgb(156, 163, 175)"/>
		<path transform="matrix(1 0 0 1 0 0)" d="M10.4688 15.625L3.28125 15.625Q2.74039 15.6234 2.24736 15.4141Q1.77151 15.2121 1.40471 14.8453Q1.0379 14.4785 0.835874 14.0026Q0.626551 13.5096 0.625002 12.9705L0.625 7.03125Q0.626551 6.49039 0.835874 5.99736Q1.03791 5.52151 1.40471 5.15471Q1.77151 4.7879 2.24736 4.58587Q2.74039 4.37655 3.27945 4.375L10.4875 4.375Q11.0246 4.37666 11.5141 4.58453Q11.9865 4.78516 12.3507 5.14933Q12.7148 5.51349 12.9155 5.98592Q13.1233 6.47539 13.125 7.01057L13.125 12.9688Q13.1234 13.5096 12.9141 14.0026Q12.7121 14.4785 12.3453 14.8453Q11.9785 15.2121 11.5026 15.4141Q11.0096 15.6234 10.4705 15.625L10.467 14.375Q11.0495 14.3733 11.4614 13.9614Q11.8733 13.5495 11.875 12.9688L11.875 7.01443Q11.8732 6.43965 11.4668 6.03321Q11.0604 5.62677 10.4875 5.625L3.28305 5.625Q2.70051 5.62667 2.28859 6.03859Q1.87667 6.45051 1.875 7.03125L1.875 12.967Q1.87667 13.5495 2.28859 13.9614Q2.70051 14.3733 3.28125 14.375L10.4688 14.375L10.4688 15.625Z" fill-rule="nonzero" fill="rgb(156, 163, 175)"/>
	</g>
</svg>
