<?xml version="1.0" encoding="utf-8" ?>
<svg xmlns="http://www.w3.org/2000/svg" xmlns:xlink="http://www.w3.org/1999/xlink" width="14.2" height="20" viewBox="0 0 14.2 20">
	<defs>
		<clipPath id="clipPath8370482662">
			<path transform="matrix(1 0 0 1 0 0)" d="M0 0L14.2 0L14.2 20L0 20L0 0Z" fill-rule="nonzero"/>
		</clipPath>
	</defs>
	<g clip-path="url(#clipPath8370482662)">
		<path transform="matrix(1 0 0 1 0 0)" d="M11.5375 11.775Q11.5375 12.766 11.23 13.5884Q10.9219 14.4126 10.3297 15.0047Q9.73759 15.5969 8.91339 15.905Q8.09102 16.2125 7.1 16.2125Q6.10898 16.2125 5.28661 15.905Q4.46241 15.5969 3.87026 15.0047Q3.27812 14.4126 2.96997 13.5884Q2.6625 12.766 2.6625 11.775Q2.6625 9.95546 4.26934 7.3379Q5.22298 5.78441 6.51006 4.27902Q6.74273 4.00729 7.10014 4.00729Q7.45754 4.00729 7.69 4.27877Q8.97762 5.78526 9.9307 7.33791Q11.5375 9.95551 11.5375 11.775L10.65 11.775Q10.65 10.2062 9.17433 7.8022Q8.2577 6.30893 7.01587 4.85601Q7.04908 4.89479 7.10014 4.89479Q7.1512 4.89479 7.18462 4.85576Q5.94286 6.30814 5.0257 7.80221Q3.55 10.2061 3.55 11.775Q3.55 13.4294 4.49782 14.3772Q5.44564 15.325 7.1 15.325Q8.75436 15.325 9.70218 14.3772Q10.65 13.4294 10.65 11.775L11.5375 11.775Z" fill-rule="nonzero" fill="rgb(107, 114, 128)"/>
		<path transform="matrix(1 0 0 1 0 0)" d="M9.54062 11.5531C9.29555 11.5531 9.09687 11.7518 9.09687 11.9969Q9.09687 12.6396 8.6417 13.0948Q8.18652 13.55 7.54375 13.55C7.29868 13.55 7.1 13.7487 7.1 13.9937C7.1 14.2388 7.29868 14.4375 7.54375 14.4375Q8.03977 14.4375 8.49368 14.2454Q8.93164 14.06 9.26926 13.7224Q9.60688 13.3848 9.79225 12.9468Q9.98438 12.4929 9.98438 11.9969C9.98438 11.7518 9.7857 11.5531 9.54062 11.5531Z" fill-rule="evenodd" fill="rgb(107, 114, 128)"/>
	</g>
</svg>
