<?xml version="1.0" encoding="utf-8" ?>
<svg xmlns="http://www.w3.org/2000/svg" xmlns:xlink="http://www.w3.org/1999/xlink" width="15" height="15" viewBox="0 0 15 15">
	<path transform="matrix(1 0 0 1 -2.5 -2.5)" d="M15.8333 2.5L4.16667 2.5C3.25 2.5 2.5 3.25 2.5 4.16667L2.5 15.8333C2.5 16.75 3.25 17.5 4.16667 17.5L15.8333 17.5C16.75 17.5 17.5 16.75 17.5 15.8333L17.5 4.16667C17.5 3.25 16.75 2.5 15.8333 2.5M7.08333 5C7.65825 5 8.125 5.46675 8.125 6.04167C8.125 6.61658 7.65825 7.08333 7.08333 7.08333C6.50842 7.08333 6.04167 6.61658 6.04167 6.04167C6.04167 5.46675 6.50842 5 7.08333 5M9.16667 11.6667L8.33333 11.6667L8.33333 15L5.83333 15L5.83333 11.6667L5 11.6667L5 9.58333C5 8.66667 5.75 7.91667 6.66667 7.91667L7.5 7.91667C8.41667 7.91667 9.16667 8.66667 9.16667 9.58333L9.16667 11.6667M12.9167 14.1667L10.8333 10.8333L15 10.8333L12.9167 14.1667M10.8333 9.16667L12.9167 5.83333L15 9.16667L10.8333 9.16667" fill-rule="nonzero" fill="rgb(75, 85, 99)"/>
</svg>
