<?xml version="1.0" encoding="utf-8" ?>
<svg xmlns="http://www.w3.org/2000/svg" xmlns:xlink="http://www.w3.org/1999/xlink" width="64" height="64" viewBox="0 0 64 64">
	<path transform="matrix(1 0 0 1 0 0)" d="M16 0C7.16344 0 0 7.16344 0 16L0 48C0 56.8366 7.16344 64 16 64L48 64C56.8366 64 64 56.8366 64 48L64 16C64 7.16344 56.8366 0 48 0L16 0Z" fill-rule="nonzero" fill="rgb(59, 130, 246)"/>
	<defs>
		<clipPath id="clipPath5215160174">
			<path transform="matrix(1 0 0 1 12 12)" d="M0 0L40 0L40 40L0 40L0 0Z" fill-rule="nonzero"/>
		</clipPath>
	</defs>
	<g clip-path="url(#clipPath5215160174)">
		<path transform="matrix(1 0 0 1 12 12)" d="M37.412 10.176L20.7624 1.85115C20.7318 1.83542 20.7007 1.82065 20.6692 1.80686C20.4521 1.71147 20.2245 1.66613 20 1.6663C19.7758 1.66613 19.5485 1.71136 19.3317 1.8065C19.2999 1.82039 19.2685 1.83528 19.2376 1.85115L2.58798 10.176Q2.51474 10.2126 2.44545 10.2562Q2.37616 10.2998 2.31148 10.35Q2.24679 10.4002 2.18734 10.4565Q2.12789 10.5128 2.07424 10.5747Q2.0206 10.6365 1.97327 10.7033Q1.92595 10.7702 1.8854 10.8413Q1.84485 10.9124 1.81147 10.9872Q1.77809 11.0619 1.75219 11.1396Q1.7263 11.2173 1.70815 11.2971Q1.68999 11.377 1.67975 11.4582Q1.66951 11.5394 1.66728 11.6213Q1.66506 11.7031 1.67086 11.7848Q1.67666 11.8665 1.69045 11.9472Q1.70423 12.0279 1.72585 12.1069Q1.74748 12.1858 1.77674 12.2623Q1.806 12.3388 1.84262 12.412Q1.96358 12.6539 2.15482 12.8452Q2.34607 13.0364 2.58798 13.1574L19.2546 21.4907Q19.4282 21.5775 19.6171 21.6221Q19.8059 21.6667 20 21.6667Q20.1941 21.6667 20.3829 21.6221Q20.5718 21.5775 20.7454 21.4907L37.412 13.1574Q37.5588 13.084 37.6885 12.9833Q37.8182 12.8827 37.9258 12.7587Q38.0333 12.6347 38.1146 12.4921Q38.1959 12.3494 38.2478 12.1937Q38.2997 12.038 38.3202 11.8751Q38.3408 11.7123 38.3291 11.5485Q38.3175 11.3848 38.2741 11.2265Q38.2308 11.0681 38.1574 10.9213Q38.0364 10.6794 37.8452 10.4882Q37.6539 10.2969 37.412 10.176ZM7.06011 11.6667L20 5.19672L32.9399 11.6667L20 18.1366L7.06011 11.6667ZM1.84262 19.2546C1.43098 20.0779 1.76469 21.0791 2.58798 21.4907L19.2546 29.824Q19.4282 29.9108 19.6171 29.9554Q19.8059 30 20 30Q20.1941 30 20.3829 29.9554Q20.5718 29.9108 20.7454 29.824L37.412 21.4907C38.2353 21.0791 38.569 20.0779 38.1574 19.2546C37.7457 18.4314 36.7446 18.0976 35.9213 18.5093L20 26.4699L4.07869 18.5093C3.2554 18.0976 2.25427 18.4314 1.84262 19.2546ZM1.84262 27.588C1.43098 28.4113 1.76469 29.4124 2.58798 29.824L19.2546 38.1574Q19.4282 38.2442 19.6171 38.2887Q19.8059 38.3333 20 38.3333Q20.1941 38.3333 20.3829 38.2887Q20.5718 38.2442 20.7454 38.1574L37.412 29.824C38.2353 29.4124 38.569 28.4113 38.1574 27.588C37.7457 26.7647 36.7446 26.431 35.9213 26.8426L20 34.8033L4.07869 26.8426C3.2554 26.431 2.25427 26.7647 1.84262 27.588Z" fill-rule="evenodd" fill="rgb(255, 255, 255)"/>
	</g>
</svg>
