<?xml version="1.0" encoding="utf-8" ?>
<svg xmlns="http://www.w3.org/2000/svg" xmlns:xlink="http://www.w3.org/1999/xlink" width="9.7625" height="9.7625" viewBox="0 0 9.7625 9.7625">
	<path transform="matrix(1 0 0 1 -2.21875 -5.11874)" d="M8.43125 6.00625C8.18618 6.00625 7.9875 5.80757 7.9875 5.5625C7.9875 5.31743 8.18618 5.11875 8.43125 5.11875L11.5375 5.11875Q11.5812 5.11875 11.6241 5.12728Q11.6669 5.1358 11.7073 5.15253Q11.7477 5.16925 11.784 5.19353Q11.8204 5.21782 11.8513 5.24872Q11.8822 5.27963 11.9065 5.31597Q11.9307 5.35231 11.9475 5.39268Q11.9642 5.43306 11.9727 5.47593Q11.9812 5.51879 11.9813 5.5625L11.9813 8.66875C11.9813 8.91382 11.7826 9.1125 11.5375 9.1125C11.2924 9.1125 11.0938 8.91382 11.0938 8.66875L11.0938 6.63302L3.73378 13.9937L5.76875 13.9937C6.01382 13.9937 6.2125 14.1924 6.2125 14.4375C6.2125 14.6826 6.01382 14.8813 5.76875 14.8813L2.6625 14.8813Q2.61879 14.8812 2.57593 14.8727Q2.53306 14.8642 2.49268 14.8475Q2.45231 14.8307 2.41597 14.8065Q2.37963 14.7822 2.34872 14.7513Q2.31782 14.7204 2.29354 14.684Q2.26925 14.6477 2.25253 14.6073Q2.2358 14.5669 2.22728 14.5241Q2.21875 14.4812 2.21875 14.4375L2.21875 11.3313C2.21875 11.0862 2.41743 10.8875 2.6625 10.8875C2.90757 10.8875 3.10625 11.0862 3.10625 11.3313L3.10625 13.3662L10.4654 6.00625L8.43125 6.00625Z" fill-rule="evenodd" fill="rgb(107, 114, 128)"/>
</svg>
