<?xml version="1.0" encoding="utf-8" ?>
<svg xmlns="http://www.w3.org/2000/svg" xmlns:xlink="http://www.w3.org/1999/xlink" width="20" height="20" viewBox="0 0 20 20">
	<defs>
		<clipPath id="clipPath7670335438">
			<path transform="matrix(1 0 0 1 0 0)" d="M0 0L20 0L20 20L0 20L0 0Z" fill-rule="nonzero"/>
		</clipPath>
	</defs>
	<g clip-path="url(#clipPath7670335438)">
		<path transform="matrix(1 0 0 1 0 0)" d="M13.541 11.8867C11.5282 10.0975 8.49488 10.0975 6.48203 11.8867C6.2584 12.0802 6.15624 12.3791 6.21464 12.669C6.27305 12.959 6.48298 13.195 6.76409 13.2868C7.04521 13.3786 7.35399 13.312 7.57227 13.1125C8.96342 11.8761 11.0596 11.8761 12.4508 13.1125C12.7893 13.4134 13.3083 13.3828 13.6092 13.0443C13.91 12.7059 13.8795 12.1868 13.541 11.8859" fill-rule="nonzero" fill="rgb(75, 85, 99)"/>
		<path transform="matrix(1 0 0 1 0 0)" d="M10.0109 7.17578C7.80849 7.17274 5.68781 8.00984 4.08125 9.51641C3.85983 9.71474 3.76304 10.0173 3.82824 10.3074C3.89344 10.5974 4.11044 10.8294 4.39544 10.9139C4.68044 10.9984 4.98884 10.9221 5.20156 10.7145C7.90844 8.18374 12.1134 8.18374 14.8203 10.7145C15.033 10.9221 15.3414 10.9984 15.6264 10.9139C15.9114 10.8294 16.1284 10.5974 16.1936 10.3074C16.2588 10.0173 16.162 9.71474 15.9406 9.51641C14.3341 8.00984 12.2134 7.17274 10.0109 7.17578" fill-rule="nonzero" fill="rgb(75, 85, 99)"/>
		<path transform="matrix(1 0 0 1 0 0)" d="M18.0469 6.86953C13.4684 2.78438 6.55352 2.78438 1.975 6.86953C1.74874 7.06281 1.64488 7.36346 1.70362 7.65518C1.76236 7.9469 1.97447 8.18394 2.2579 8.27459C2.54133 8.36524 2.85163 8.29529 3.06875 8.0918C7.02442 4.56391 12.9971 4.56391 16.9527 8.0918C17.2902 8.39363 17.8093 8.36466 18.1111 8.02715C18.413 7.68964 18.384 7.17058 18.0465 6.86875" fill-rule="nonzero" fill="rgb(75, 85, 99)"/>
		<path transform="matrix(1 0 0 1 0 0)" d="M10.0109 14.1176C9.32104 14.1176 8.76094 14.6777 8.76094 15.3676C8.76094 16.0575 9.32104 16.6176 10.0109 16.6176C10.7008 16.6176 11.2609 16.0575 11.2609 15.3676C11.2609 14.6777 10.7008 14.1176 10.0109 14.1176" fill-rule="nonzero" fill="rgb(75, 85, 99)"/>
	</g>
</svg>
