<?xml version="1.0" encoding="utf-8" ?>
<svg xmlns="http://www.w3.org/2000/svg" xmlns:xlink="http://www.w3.org/1999/xlink" width="20" height="20" viewBox="0 0 20 20">
	<defs>
		<clipPath id="clipPath7435364781">
			<path transform="matrix(1 0 0 1 0 0)" d="M0 0L20 0L20 20L0 20L0 0Z" fill-rule="nonzero"/>
		</clipPath>
	</defs>
	<g clip-path="url(#clipPath7435364781)">
		<path transform="matrix(1 0 0 1 0 0)" d="M3.75 2.5L16.25 2.5Q16.758 2.5 17.2232 2.69688Q17.6718 2.88676 18.0175 3.23249Q18.3632 3.57822 18.5531 4.02684Q18.75 4.49198 18.75 5L18.75 15Q18.75 15.508 18.5531 15.9732Q18.3632 16.4218 18.0175 16.7675Q17.6718 17.1132 17.2232 17.3031Q16.758 17.5 16.25 17.5L3.75 17.5Q3.24198 17.5 2.77684 17.3031Q2.32822 17.1132 1.98249 16.7675Q1.63676 16.4218 1.44688 15.9732Q1.25 15.508 1.25 15L1.25 5Q1.25 4.49198 1.44688 4.02684Q1.63676 3.57822 1.98249 3.23249Q2.32822 2.88676 2.77684 2.69688Q3.24198 2.5 3.75 2.5L3.75 3.75Q3.23275 3.75 2.86638 4.11638Q2.5 4.48275 2.5 5L2.5 15Q2.5 15.5172 2.86638 15.8836Q3.23275 16.25 3.75 16.25L16.25 16.25Q16.7672 16.25 17.1336 15.8836Q17.5 15.5172 17.5 15L17.5 5Q17.5 4.48275 17.1336 4.11638Q16.7672 3.75 16.25 3.75L3.75 3.75L3.75 2.5Z" fill-rule="nonzero" fill="rgb(156, 163, 175)"/>
		<path transform="matrix(1 0 0 1 0 0)" d="M13.125 6.25Q12.8665 6.25 12.6832 6.43323Q12.5 6.61646 12.5 6.875Q12.5 7.13354 12.6832 7.31677Q12.8665 7.5 13.125 7.5Q13.3835 7.5 13.5668 7.31677Q13.75 7.13354 13.75 6.875Q13.75 6.61646 13.5668 6.43323Q13.3835 6.25 13.125 6.25L13.125 5Q13.9013 5 14.4507 5.54935Q15 6.0987 15 6.875Q15 7.6513 14.4507 8.20065Q13.9013 8.75 13.125 8.75Q12.3487 8.75 11.7993 8.20065Q11.25 7.6513 11.25 6.875Q11.25 6.0987 11.7993 5.54935Q12.3487 5 13.125 5L13.125 6.25Z" fill-rule="nonzero" fill="rgb(156, 163, 175)"/>
		<path transform="matrix(1 0 0 1 0 0)" d="M11.3076 13.4335L7.89207 10.0244Q7.71628 9.84864 7.46832 9.84129Q7.22037 9.83394 7.03487 9.99863L2.29028 14.2171C2.03233 14.4464 1.63727 14.4232 1.40792 14.1653C1.17857 13.9073 1.20176 13.5123 1.45972 13.2829L6.20498 9.06387Q6.76149 8.56979 7.50535 8.59184Q8.24921 8.61388 8.77512 9.13968L12.1915 12.5496L13.126 11.6151Q13.6393 11.1007 14.3658 11.067Q15.0924 11.0333 15.6516 11.4983L18.5253 13.895C18.7904 14.1161 18.8261 14.5102 18.605 14.7753C18.3839 15.0404 17.9898 15.0761 17.7247 14.855L14.8523 12.4595Q14.6659 12.3045 14.4238 12.3157Q14.1816 12.3269 14.0099 12.499L9.19194 17.3169C8.94787 17.561 8.55213 17.561 8.30806 17.3169C8.06398 17.0729 8.06398 16.6771 8.30806 16.4331L11.3076 13.4335Z" fill-rule="evenodd" fill="rgb(156, 163, 175)"/>
	</g>
</svg>
