<?xml version="1.0" encoding="utf-8" ?>
<svg xmlns="http://www.w3.org/2000/svg" xmlns:xlink="http://www.w3.org/1999/xlink" width="20" height="20" viewBox="0 0 20 20">
	<defs>
		<clipPath id="clipPath9762219860">
			<path transform="matrix(1 0 0 1 0 0)" d="M0 0L20 0L20 20L0 20L0 0Z" fill-rule="nonzero"/>
		</clipPath>
	</defs>
	<g clip-path="url(#clipPath9762219860)">
		<path transform="matrix(1 0 0 1 0 0)" d="M10 3.75C9.65483 3.75 9.375 4.02983 9.375 4.375L9.375 9.375L4.375 9.375C4.02983 9.375 3.75 9.65483 3.75 10C3.75 10.3452 4.02983 10.625 4.375 10.625L9.375 10.625L9.375 15.625C9.375 15.9702 9.65483 16.25 10 16.25C10.3452 16.25 10.625 15.9702 10.625 15.625L10.625 10.625L15.625 10.625C15.9702 10.625 16.25 10.3452 16.25 10C16.25 9.65483 15.9702 9.375 15.625 9.375L10.625 9.375L10.625 4.375C10.625 4.02983 10.3452 3.75 10 3.75Z" fill-rule="evenodd" fill="rgb(255, 255, 255)"/>
	</g>
</svg>
