<?xml version="1.0" encoding="utf-8" ?>
<svg xmlns="http://www.w3.org/2000/svg" xmlns:xlink="http://www.w3.org/1999/xlink" width="12.5" height="11.25" viewBox="0 0 12.5 11.25">
	<path transform="matrix(1 0 0 1 -0.625 -4.375)" d="M10.4688 15.625L3.28125 15.625Q2.74039 15.6234 2.24736 15.4141Q1.77151 15.2121 1.40471 14.8453Q1.0379 14.4785 0.835874 14.0026Q0.626551 13.5096 0.625002 12.9705L0.625 7.03125Q0.626551 6.49039 0.835874 5.99736Q1.03791 5.52151 1.40471 5.15471Q1.77151 4.7879 2.24736 4.58587Q2.74039 4.37655 3.27945 4.375L10.4875 4.375Q11.0246 4.37666 11.5141 4.58453Q11.9865 4.78516 12.3507 5.14933Q12.7148 5.51349 12.9155 5.98592Q13.1233 6.47539 13.125 7.01057L13.125 12.9688Q13.1234 13.5096 12.9141 14.0026Q12.7121 14.4785 12.3453 14.8453Q11.9785 15.2121 11.5026 15.4141Q11.0096 15.6234 10.4705 15.625L10.467 14.375Q11.0495 14.3733 11.4614 13.9614Q11.8733 13.5495 11.875 12.9688L11.875 7.01443Q11.8732 6.43965 11.4668 6.03321Q11.0604 5.62677 10.4875 5.625L3.28305 5.625Q2.70051 5.62667 2.28859 6.03859Q1.87667 6.45051 1.875 7.03125L1.875 12.967Q1.87667 13.5495 2.28859 13.9614Q2.70051 14.3733 3.28125 14.375L10.4688 14.375L10.4688 15.625Z" fill-rule="nonzero" fill="rgb(156, 163, 175)"/>
</svg>
